<svg width="38" height="61" viewBox="0 0 38 61" fill="none" xmlns="http://www.w3.org/2000/svg">
<path fill-rule="evenodd" clip-rule="evenodd" d="M5.82746 1.19633C5.82746 1.62359 5.97506 1.64584 8.81475 1.64584H11.802V14.326C11.802 21.3001 11.8611 27.1628 11.9335 27.3543C12.0277 27.6033 15.0281 24.6656 22.4996 17.0084C28.2387 11.1271 32.9664 6.17463 33.0058 6.00315C33.0451 5.83166 32.9865 5.69141 32.8754 5.69141C32.7643 5.69141 29.2741 9.14408 25.1191 13.3643C20.2204 18.3401 17.5235 20.9272 17.4471 20.7247C17.3821 20.553 17.3551 16.2153 17.3869 11.0853L17.4447 1.75822L20.4873 1.69574C23.3471 1.63685 23.5299 1.60651 23.5299 1.19004C23.5299 0.756266 23.3402 0.746826 14.6787 0.746826C5.97506 0.746826 5.82746 0.754244 5.82746 1.19633ZM16.2141 29.8576C9.88109 36.2894 7.13744 38.9339 6.89492 38.8395C5.93899 38.4668 5.82326 36.7672 6.59973 34.5098C7.08854 33.0887 7.11974 32.8143 6.87633 32.0759C6.4694 30.8416 5.61658 30.3002 4.09573 30.3103C1.83911 30.3253 0.511206 31.7473 0.521606 34.1376C0.531564 36.3928 2.18409 38.483 4.69163 39.4117C5.43801 39.6881 6.04874 39.9747 6.04874 40.0486C6.04874 40.1226 5.08286 41.1677 3.90255 42.3712C2.72224 43.5746 1.82915 44.6334 1.91833 44.724C2.0075 44.8143 3.14754 43.8169 4.45177 42.5072L6.82323 40.1259L8.92538 39.9974C10.0816 39.9266 11.3015 39.803 11.6361 39.7227L12.2446 39.5769V59.8571H9.14667C6.69798 59.8571 6.04874 59.9205 6.04874 60.1596C6.04874 60.57 24.7053 60.9022 26.7384 60.528C30.2864 59.8751 32.6502 58.7353 34.6043 56.7353C36.8501 54.4367 37.5962 52.3579 37.4289 48.8666C37.3079 46.3399 36.6341 44.8121 34.8357 42.9855C33.3297 41.4558 31.195 40.3118 28.73 39.7135C27.878 39.5068 27.0316 39.2917 26.8491 39.2359C26.6665 39.18 27.0648 38.9916 27.7342 38.8174C30.8916 37.9962 33.7269 35.9129 34.9845 33.4908C35.5288 32.4421 35.9269 32.0036 35.9215 29.9822C35.9167 28.1644 35.4859 27.6256 35.0982 26.7619C34.4963 25.4214 32.6387 23.4076 31.2999 22.6441C30.0687 21.9422 27.5519 21.0751 26.1852 20.8823L25.1895 20.7418L16.2141 29.8576ZM26.3634 22.5617C28.5518 23.8365 29.5788 26.2627 29.5916 30.1896C29.604 33.8854 28.9307 36.017 27.3047 37.4305C26.0416 38.5286 25.1919 38.7334 21.2618 38.8864L17.7766 39.0222V28.9586L21.2591 25.416C23.1745 23.4679 24.8425 21.8746 24.9655 21.8757C25.0888 21.8771 25.7177 22.1856 26.3634 22.5617ZM12.0069 35.7868C11.6555 38.0441 10.5536 39.1773 8.70831 39.1788L7.71675 39.1797L9.92115 36.9322C11.1335 35.696 12.1375 34.6847 12.1521 34.6847C12.1667 34.6847 12.1012 35.1807 12.0069 35.7868ZM25.8321 39.9702C29.8103 41.0227 31.6947 45.2494 31.0512 51.676C30.9206 52.9798 30.6053 54.6125 30.3504 55.304C29.8253 56.7299 28.464 58.3548 27.3016 58.9439C25.605 59.8034 22.5273 60.2187 19.6555 59.9758L17.7766 59.8166V39.6292H21.16C23.4704 39.6292 24.952 39.7373 25.8321 39.9702Z" fill="black"/>
</svg>
