<svg width="19" height="25" viewBox="0 0 19 25" fill="none" xmlns="http://www.w3.org/2000/svg">
<path d="M0.232505 9.27715C0.232505 8.26712 0.409254 7.31291 0.757555 6.42231C1.09033 5.55729 1.58474 4.76338 2.21444 4.08287C2.84286 3.4113 3.56199 2.83058 4.35103 2.3575C5.16059 1.86826 6.03704 1.49916 6.95289 1.26178C7.8798 1.01865 8.83425 0.896036 9.79258 0.896978C11.2729 0.896978 12.6505 1.20986 13.928 1.83301C15.1889 2.44481 16.2621 3.3837 17.0354 4.55154C17.8334 5.73943 18.2298 7.08312 18.2298 8.58129C18.2298 9.47968 18.1414 10.3586 17.9608 11.218C17.7834 12.077 17.5014 12.911 17.1212 13.7016C16.7588 14.4668 16.2849 15.1743 15.715 15.8008C15.1422 16.4174 14.4486 16.9097 13.6772 17.2471C12.8397 17.6137 11.9338 17.7983 11.0194 17.7885C10.3839 17.7885 9.7497 17.6392 9.12327 17.3393C8.49685 17.0407 8.04718 16.6304 7.77686 16.1046C7.68198 16.4694 7.55202 16.9965 7.37917 17.6859C7.21282 18.374 7.10105 18.818 7.05166 19.0192C6.99968 19.2191 6.90351 19.5528 6.76315 20.0149C6.66796 20.3568 6.54585 20.6907 6.39795 21.0133L5.95088 21.8883C5.75753 22.2638 5.54139 22.6271 5.30366 22.9762C5.06843 23.3164 4.77731 23.7227 4.43031 24.1901L4.23667 24.2589L4.108 24.1187C3.96894 22.6478 3.89746 21.7676 3.89746 21.4768C3.89746 20.616 4.00013 19.6501 4.20287 18.5778C4.40172 17.5067 4.71623 16.1605 5.13861 14.5415C5.56099 12.9239 5.80272 11.9723 5.8677 11.6906C5.57009 11.0843 5.41933 10.2924 5.41933 9.3187C5.41933 8.54105 5.66236 7.81273 6.14972 7.12726C6.63838 6.44438 7.25571 6.10294 8.00429 6.10294C8.57743 6.10294 9.0219 6.29249 9.34031 6.67287C9.66002 7.05196 9.81598 7.52972 9.81598 8.11263C9.81598 8.73059 9.61064 9.62508 9.19735 10.7948C8.78407 11.9658 8.57873 12.8395 8.57873 13.4199C8.57873 14.008 8.78927 14.5 9.21035 14.8856C9.6259 15.2713 10.1754 15.4804 10.7426 15.4685C11.2573 15.4685 11.7342 15.3516 12.1774 15.1167C12.6137 14.8886 12.9913 14.5629 13.2808 14.165C13.9114 13.3008 14.3609 12.3183 14.6025 11.2765C14.7273 10.7286 14.8235 10.208 14.8832 9.71856C14.9469 9.22652 14.9742 8.76175 14.9742 8.32035C14.9742 6.70143 14.4596 5.43954 13.4367 4.53596C12.4087 3.63238 11.0701 3.18319 9.42349 3.18319C7.55072 3.18319 5.98467 3.78817 4.73053 5.00203C3.47508 6.212 2.84346 7.75042 2.84346 9.616C2.84346 10.0275 2.90584 10.4248 3.02411 10.8091C3.13978 11.1921 3.26584 11.4972 3.4023 11.723C3.53746 11.945 3.66483 12.1619 3.7805 12.3618C3.89746 12.5617 3.95854 12.7045 3.95854 12.7902C3.95854 13.0525 3.88966 13.3939 3.7506 13.8158C3.60634 14.2378 3.43609 14.4481 3.23075 14.4481C3.21126 14.4481 3.13068 14.4338 2.99032 14.4039C2.50421 14.259 2.06521 13.988 1.71798 13.6185C1.34946 13.2356 1.05862 12.785 0.861525 12.2917C0.664992 11.8001 0.511918 11.2923 0.404056 10.774C0.28752 10.2837 0.22993 9.78115 0.232505 9.27715Z" fill="white"/>
</svg>
