<svg width="585" height="579" viewBox="0 0 585 579" fill="none" xmlns="http://www.w3.org/2000/svg">
<mask id="mask0_40:1247" style="mask-type:alpha" maskUnits="userSpaceOnUse" x="0" y="0" width="585" height="579">
<rect width="585" height="579" fill="#C4C4C4"/>
</mask>
<g mask="url(#mask0_40:1247)">
<path opacity="0.08" fill-rule="evenodd" clip-rule="evenodd" d="M238.864 170.938C238.864 172.669 239.463 172.759 250.993 172.759H263.123V224.127C263.123 252.379 263.363 276.129 263.657 276.905C264.04 277.914 276.222 266.013 306.56 234.994C329.863 211.168 349.059 191.106 349.219 190.411C349.379 189.716 349.141 189.148 348.69 189.148C348.239 189.148 334.067 203.135 317.196 220.231C297.305 240.388 286.354 250.869 286.044 250.048C285.78 249.353 285.671 231.781 285.8 210.999L286.035 173.215L298.389 172.962C310.001 172.723 310.743 172.6 310.743 170.913C310.743 169.156 309.973 169.117 274.803 169.117C239.463 169.117 238.864 169.147 238.864 170.938ZM281.038 287.046C255.323 313.101 244.183 323.814 243.198 323.432C239.317 321.922 238.847 315.037 242 305.892C243.984 300.135 244.111 299.023 243.123 296.032C241.47 291.032 238.008 288.839 231.832 288.88C222.669 288.941 217.278 294.701 217.32 304.384C217.36 313.52 224.07 321.988 234.252 325.75C237.282 326.87 239.762 328.03 239.762 328.33C239.762 328.63 235.84 332.863 231.048 337.739C226.255 342.614 222.629 346.903 222.991 347.27C223.353 347.636 227.982 343.595 233.278 338.29L242.907 328.643L251.443 328.122C256.137 327.836 261.091 327.335 262.449 327.01L264.92 326.419V408.575H252.341C242.398 408.575 239.762 408.831 239.762 409.8C239.762 411.463 315.516 412.808 323.771 411.292C338.178 408.647 347.775 404.03 355.71 395.928C364.829 386.616 367.858 378.195 367.179 364.052C366.688 353.816 363.952 347.627 356.65 340.227C350.535 334.031 341.867 329.396 331.858 326.972C328.398 326.135 324.962 325.264 324.22 325.038C323.479 324.811 325.096 324.048 327.814 323.342C340.635 320.015 352.147 311.576 357.253 301.764C359.464 297.516 361.08 295.74 361.058 287.551C361.039 280.187 359.289 278.004 357.715 274.505C355.271 269.075 347.729 260.917 342.293 257.824C337.293 254.981 327.074 251.468 321.525 250.687L317.482 250.118L281.038 287.046ZM322.248 257.49C331.134 262.654 335.304 272.483 335.356 288.391C335.407 303.363 332.673 311.998 326.07 317.724C320.942 322.172 317.492 323.002 301.534 323.622L287.382 324.172V283.404L301.523 269.053C309.3 261.161 316.073 254.706 316.572 254.711C317.073 254.717 319.626 255.967 322.248 257.49ZM263.955 311.065C262.528 320.209 258.054 324.8 250.561 324.806L246.535 324.81L255.486 315.705C260.409 310.698 264.485 306.6 264.544 306.6C264.604 306.6 264.338 308.61 263.955 311.065ZM320.091 328.012C336.244 332.276 343.896 349.399 341.283 375.433C340.753 380.715 339.472 387.328 338.437 390.13C336.305 395.906 330.778 402.489 326.058 404.875C319.169 408.357 306.672 410.04 295.011 409.055L287.382 408.411V326.631H301.12C310.501 326.631 316.518 327.069 320.091 328.012Z" fill="white"/>
</g>
</svg>
