<svg width="27" height="22" viewBox="0 0 27 22" fill="none" xmlns="http://www.w3.org/2000/svg">
<path d="M23.6901 5.48277C23.7073 5.72397 23.7073 5.96379 23.7073 6.20361C23.7073 13.5429 18.3451 22 8.54553 22C5.5264 22 2.7216 21.089 0.361328 19.5067C0.789987 19.5577 1.20277 19.5756 1.64863 19.5756C4.04725 19.5817 6.37796 18.7461 8.26505 17.2036C7.15295 17.1826 6.07489 16.8004 5.18141 16.1103C4.28792 15.4201 3.62361 14.4566 3.28123 13.3541C3.61067 13.4051 3.94142 13.4395 4.28805 13.4395C4.76566 13.4395 5.24592 13.3706 5.69178 13.2507C4.48487 12.9969 3.39961 12.3154 2.62054 11.3221C1.84148 10.3288 1.41669 9.08509 1.41842 7.80241V7.73349C2.12888 8.1456 2.95313 8.40333 3.82632 8.43779C3.09481 7.93139 2.49499 7.24424 2.08038 6.43763C1.66577 5.63102 1.44927 4.73003 1.45017 3.81506C1.45017 2.78411 1.71346 1.83862 2.17519 1.01441C3.51427 2.73039 5.1844 4.13422 7.07743 5.13498C8.97045 6.13574 11.0441 6.71111 13.1642 6.82383C13.0822 6.41035 13.0319 5.98171 13.0319 5.55169C13.0315 4.82253 13.1692 4.10044 13.4368 3.42672C13.7045 2.75299 14.0971 2.14084 14.592 1.62524C15.0869 1.10965 15.6745 0.70073 16.3212 0.42186C16.968 0.14299 17.6611 -0.00036163 18.361 6.85089e-07C19.8957 6.85089e-07 21.2809 0.669841 22.2547 1.75316C23.4477 1.51282 24.5918 1.0591 25.6363 0.412104C25.2386 1.69502 24.4056 2.78288 23.2932 3.47187C24.3514 3.34614 25.3855 3.05626 26.3613 2.61183C25.6325 3.71872 24.7294 4.68936 23.6901 5.48277Z" fill="white"/>
</svg>
